<svg width="74" height="34" viewBox="0 0 74 34" fill="none" xmlns="http://www.w3.org/2000/svg">
<g clip-path="url(#clip0_1490_1403)">
<g clip-path="url(#clip1_1490_1403)">
<path d="M68.7714 8.23715C68.8194 8.06529 68.9915 7.91342 69.1595 7.89743L73.3519 7.52973L74 5.11572L67.3233 5.69924C66.6392 5.75919 65.9151 6.42664 65.7231 7.17802L65.103 9.48812C64.659 11.1428 65.6031 12.3737 67.2073 12.2299L68.4834 12.118C68.6514 12.102 68.7474 12.2299 68.7034 12.4057L68.2514 14.0963C68.2034 14.2682 68.0314 14.4201 67.8633 14.436L61.7587 14.9676L61.4466 13.2051L58.5783 19.6518L56.0061 20.7868L6.34069 25.1272L12.2173 3.21729L5.97265 3.77682L7.68883 5.32755L0 33.9999L57.9743 23.7004L59.0424 29.6595L61.9107 23.2128L68.2074 20.4351L62.5028 19.1602L62.1707 17.2897L69.7035 16.6302C70.3876 16.5703 71.1117 15.9028 71.3077 15.1515L71.9238 12.8454C72.3678 11.1907 71.4237 9.95973 69.8195 10.0996L68.5434 10.2115C68.3754 10.2275 68.2794 10.0996 68.3234 9.92376L68.7754 8.23315L68.7714 8.23715Z" fill="white"/>
<path d="M64.3229 8.31722L64.963 5.90321L58.9024 6.43477C58.2183 6.49472 57.4942 7.16217 57.3022 7.91355L55.258 15.5353L47.9132 16.1787C47.7452 16.1947 47.6491 16.0668 47.6931 15.891L48.2292 13.8886L53.8298 13.401L54.8179 9.72007C55.262 8.06543 54.3179 6.83444 52.7137 6.97433L47.8412 7.40198C47.1571 7.46193 46.433 8.12938 46.241 8.88076L44.3528 15.919C44.3008 16.1188 44.2648 16.3106 44.2528 16.4985L42.4526 16.6544C42.2846 16.6703 42.1886 16.5424 42.2326 16.3666L46.577 0.147949L40.9684 0.651535L42.6846 2.20226L41.1324 7.98949L36.772 8.36918C36.0879 8.42913 35.3638 9.09658 35.1718 9.84796L33.2836 16.8862C33.2316 17.086 33.1956 17.2778 33.1836 17.4657L31.3834 17.6216C31.2154 17.6375 31.1194 17.5097 31.1634 17.3338L32.6875 11.6505C33.1316 9.99584 32.1875 8.76485 30.5833 8.90474L24.4786 9.4403L22.0664 18.4369L20.3182 18.5888C20.1502 18.6047 20.0542 18.4769 20.0982 18.301L21.6223 12.6177C22.0664 10.963 21.1223 9.73206 19.5181 9.87194L13.4134 10.4075L12.7654 12.8215L18.0579 12.3579C18.226 12.3419 18.322 12.4698 18.278 12.6457L17.7699 14.5401L13.4455 14.9198C12.7414 14.9797 12.0173 15.6192 11.8213 16.3426L11.1572 18.8206C10.7132 20.4752 11.6573 21.7062 13.2614 21.5663L16.5338 21.2785C16.8858 21.2466 17.2419 21.0228 17.4819 20.715C17.7259 20.9868 18.142 21.1387 18.67 21.0947L20.7382 20.9148L21.7263 19.7118L21.4183 20.8549L24.8347 20.5551L27.2469 11.5586L29.1231 11.3947C29.2912 11.3787 29.3872 11.5066 29.3432 11.6824L27.819 17.3658C27.375 19.0204 28.3191 20.2514 29.9232 20.1115L31.7994 19.9476L33.2356 18.2011C33.4476 19.1443 34.2557 19.7318 35.3918 19.6319L38.6642 19.3441C39.0162 19.3122 39.3722 19.0884 39.6123 18.7806C39.8563 19.0524 40.2723 19.2043 40.8004 19.1603L42.8686 18.9804L44.3048 17.2339C44.5168 18.1771 45.3249 18.7646 46.461 18.6647L53.9338 18.0132L54.9219 16.8102L54.6139 17.9533L58.0303 17.6535L60.3585 8.96869C60.4065 8.79683 60.5785 8.64495 60.7466 8.62896L64.3269 8.31722H64.3229ZM49.2893 9.93589C49.3373 9.76403 49.5093 9.61216 49.6774 9.59617L51.2495 9.46028C51.4176 9.44429 51.5136 9.57219 51.4696 9.74804L50.9335 11.7504L48.7533 11.9422L49.2893 9.93989V9.93589ZM16.6738 18.6048C16.6258 18.7766 16.4538 18.9285 16.2858 18.9445L14.7136 19.0804C14.5456 19.0963 14.4496 18.9685 14.4936 18.7926L14.9776 16.9901C15.0256 16.8182 15.1976 16.6663 15.3657 16.6504L17.2419 16.4865L16.6738 18.6008V18.6048ZM38.8042 16.6703C38.7562 16.8422 38.5842 16.9941 38.4161 17.0101L36.844 17.146C36.676 17.1619 36.5799 17.034 36.624 16.8582L38.2201 10.9031C38.2681 10.7312 38.4402 10.5794 38.6082 10.5634L40.4844 10.3995L38.8042 16.6663V16.6703Z" fill="white"/>
<path d="M15.3177 5.46363L16.1337 4.48843C16.6978 4.95605 17.2899 5.24781 18.006 5.24781C18.57 5.24781 18.91 5.02399 18.91 4.65629V4.64031C18.91 4.29259 18.694 4.11274 17.6459 3.84496C16.3818 3.52123 15.5657 3.17351 15.5657 1.92654V1.91055C15.5697 0.771491 16.4858 0.0161133 17.7659 0.0161133C18.682 0.0161133 19.4621 0.303876 20.0982 0.811458L19.3821 1.8506C18.826 1.46692 18.278 1.23111 17.7499 1.23111C17.2219 1.23111 16.9418 1.47491 16.9418 1.77866V1.79465C16.9418 2.20631 17.2099 2.3422 18.294 2.61797C19.5661 2.9497 20.2822 3.40532 20.2822 4.50042V4.51641C20.2822 5.75938 19.3301 6.45881 17.9779 6.45881C17.0258 6.45881 16.0697 6.12708 15.3137 5.45563L15.3177 5.46363Z" fill="white"/>
<path d="M20.6742 5.46363L21.4903 4.48843C22.0544 4.95605 22.6464 5.24781 23.3625 5.24781C23.9266 5.24781 24.2666 5.02399 24.2666 4.65629V4.64031C24.2666 4.29259 24.0506 4.11274 23.0025 3.84496C21.7383 3.52123 20.9223 3.17351 20.9223 1.92654V1.91055C20.9263 0.771491 21.8424 0.0161133 23.1225 0.0161133C24.0386 0.0161133 24.8187 0.303876 25.4547 0.811458L24.7387 1.8506C24.1826 1.46692 23.6345 1.23111 23.1065 1.23111C22.5784 1.23111 22.2984 1.47491 22.2984 1.77866V1.79465C22.2984 2.20631 22.5664 2.3422 23.6505 2.61797C24.9227 2.9497 25.6388 3.40532 25.6388 4.50042V4.51641C25.6388 5.75938 24.6907 6.45881 23.3345 6.45881C22.3824 6.45881 21.4263 6.12708 20.6702 5.45563L20.6742 5.46363Z" fill="white"/>
<path d="M26.1989 3.26122V3.24524C26.1989 1.4627 27.587 0.00390625 29.4872 0.00390625C30.6153 0.00390625 31.2994 0.307656 31.9515 0.863199L31.0834 1.91034C30.5993 1.50667 30.1673 1.27486 29.4432 1.27486C28.4391 1.27486 27.643 2.16213 27.643 3.22525V3.24124C27.643 4.3883 28.4311 5.2276 29.5432 5.2276C30.0433 5.2276 30.4953 5.10371 30.8434 4.85191V3.95665H29.4552V2.76563H32.1795V5.48739C31.5354 6.03494 30.6473 6.48257 29.4992 6.48257C27.547 6.48257 26.1989 5.1117 26.1989 3.25723V3.26122Z" fill="white"/>
<path d="M13.9855 20.3232C13.0974 20.3992 12.5774 19.7237 12.8214 18.8085L13.3934 16.6702C13.4535 16.4464 13.5975 16.2346 13.7775 16.0747L12.4333 15.3833C12.1413 15.6391 11.9093 15.9828 11.8133 16.3425L11.1492 18.8205C10.7052 20.4751 11.6493 21.7061 13.2534 21.5662L16.5258 21.2784C16.8778 21.2465 17.2339 21.0227 17.4739 20.7149C17.7179 20.9867 18.134 21.1386 18.662 21.0946L20.6862 20.9187L20.2142 19.7797L13.9855 20.3232Z" fill="#C9CACC"/>
<path d="M25.8588 10.5035L24.4746 9.44434L21.4143 20.8549L24.8307 20.5552L23.4465 19.4961L25.8588 10.5035Z" fill="#C9CACC"/>
<path d="M40.9684 0.651367L42.6886 2.20209L41.1365 7.98533L42.5206 9.04446L44.5208 1.5866L40.9684 0.651367Z" fill="#C9CACC"/>
<path d="M52.3817 12.5776L46.7811 13.0652L48.2292 13.8886L53.8298 13.401L52.3817 12.5776Z" fill="#C9CACC"/>
<path d="M57.9183 6.91415C57.6263 7.18193 57.3982 7.53764 57.3022 7.91333L54.6099 17.9531L58.0263 17.6533L56.6421 16.5942L58.8304 8.4409C58.8904 8.20909 59.0344 7.99326 59.2144 7.8254L57.9223 6.91016L57.9183 6.91415Z" fill="#C9CACC"/>
<path d="M59.8225 7.53404C59.6105 7.55402 59.3905 7.66593 59.2104 7.82979L60.5026 8.74504C60.5746 8.68509 60.6586 8.64113 60.7426 8.63313L64.323 8.32139L63.2389 7.23828L59.8265 7.53803L59.8225 7.53404Z" fill="#C9CACC"/>
<path d="M31.3234 18.8087L30.6473 18.8686C29.7593 18.9446 29.2392 18.2691 29.4832 17.3539L31.0074 11.6706C31.2514 10.7553 30.7314 10.0759 29.8433 10.1558L25.8508 10.5035L27.235 11.5626L29.1112 11.3988C29.2792 11.3828 29.3752 11.5107 29.3312 11.6865L27.807 17.3699C27.363 19.0245 28.3071 20.2555 29.9113 20.1156L31.7875 19.9517L31.3154 18.8127L31.3234 18.8087Z" fill="#C9CACC"/>
<path d="M19.2141 15.3672L14.4056 15.7868C14.1896 15.8068 13.9655 15.9147 13.7855 16.0746L15.1297 16.766C15.2017 16.7061 15.2857 16.6621 15.3697 16.6541L17.2459 16.4903L16.6778 18.6045C16.6538 18.6924 16.5978 18.7724 16.5298 18.8323L17.5379 20.0114C17.782 19.9914 18.038 19.7676 18.106 19.5158L19.2181 15.3672H19.2141Z" fill="#C9CACC"/>
<path d="M18.7821 11.119L14.4936 11.4947L13.4095 10.4116L12.7614 12.8256L18.054 12.362C18.222 12.346 18.318 12.4739 18.274 12.6498L17.766 14.5442L19.2141 15.3675L19.9462 12.6338C20.1902 11.7185 19.6702 11.0391 18.7821 11.119Z" fill="#C9CACC"/>
<path d="M51.9816 8.21733L48.7573 8.4971C48.5452 8.51708 48.3252 8.62899 48.1452 8.79285L49.4373 9.7081C49.5094 9.64815 49.5934 9.60418 49.6774 9.59619L51.2495 9.4603C51.4176 9.44432 51.5136 9.57221 51.4696 9.74807L50.9335 11.7504L52.3817 12.5737L53.1457 9.73208C53.3898 8.81683 52.8697 8.13739 51.9816 8.21733Z" fill="#C9CACC"/>
<path d="M72.2678 6.44678L68.2434 6.79849C68.0314 6.81847 67.8114 6.93038 67.6313 7.09424L68.9235 8.00949C68.9955 7.94954 69.0795 7.90558 69.1635 7.89758L73.356 7.52989L72.2719 6.44678H72.2678Z" fill="#C9CACC"/>
<path d="M66.3392 6.17871L67.6313 7.09396C67.4513 7.25782 67.3073 7.47764 67.2473 7.70945L66.7112 9.70781C66.4672 10.6231 66.9872 11.2985 67.8753 11.2226L69.1515 11.1106C70.0396 11.0347 70.5596 11.7102 70.3156 12.6254L69.7795 14.6238C69.7195 14.8556 69.5755 15.0714 69.3955 15.2393L68.1034 14.324C68.1754 14.2641 68.2274 14.1801 68.2514 14.0962L68.7034 12.4056C68.7514 12.2337 68.6514 12.1058 68.4834 12.1178L67.2073 12.2297C65.5991 12.3696 64.659 11.1426 65.103 9.48799L65.7231 7.17789" fill="#C9CACC"/>
<path d="M69.3955 15.2395C69.2155 15.4033 68.9954 15.5152 68.7834 15.5352L63.0628 16.0348L61.7587 14.9717L62.1707 17.2938L69.7035 16.6343C70.0476 16.6023 70.3996 16.4225 70.6876 16.1547L69.3955 15.2395Z" fill="#C9CACC"/>
<path d="M42.3886 17.8413L36.1159 18.3889C35.2278 18.4648 34.7078 17.7894 34.9518 16.8741L36.696 10.3755C36.756 10.1437 36.9 9.92784 37.08 9.75997L35.7879 8.84473C35.4958 9.11251 35.2678 9.46821 35.1718 9.8439L33.2836 16.8821C32.8396 18.5367 33.7837 19.7677 35.3878 19.6278L38.6602 19.3401C39.0122 19.3081 39.3683 19.0843 39.6083 18.7765C39.8523 19.0483 40.2684 19.2002 40.7964 19.1562L42.8646 18.9764L42.3926 17.8373L42.3886 17.8413Z" fill="#C9CACC"/>
<path d="M53.4538 16.874L47.1811 17.4216C46.293 17.4975 45.7729 16.8221 46.017 15.9068L47.7612 9.40818C47.8212 9.17637 47.9652 8.96055 48.1452 8.79269L46.8531 7.87744C46.561 8.14522 46.333 8.50093 46.237 8.87662L44.3488 15.9148C43.9047 17.5695 44.8488 18.8004 46.453 18.6606L53.9258 18.0091L53.4538 16.87V16.874Z" fill="#C9CACC"/>
<path d="M57.9743 23.7044L55.218 23.089L2.63228 31.574L9.81706 4.78802L5.97265 3.77686L7.68883 5.32758L0 34L57.9743 23.7044Z" fill="#C9CACC"/>
<path d="M37.6921 9.46809C37.4801 9.48807 37.26 9.59998 37.08 9.76384L38.3722 10.6791C38.4442 10.6191 38.5282 10.5752 38.6122 10.5672L40.4884 10.4033L38.8082 16.6702C38.7842 16.7581 38.7282 16.838 38.6602 16.898L39.6683 18.077C39.9123 18.057 40.1684 17.8332 40.2364 17.5814L42.5246 9.04443L37.6961 9.46809H37.6921Z" fill="#C9CACC"/>
<path d="M61.7787 19.8914L61.0626 15.8428L59.1144 20.2232L56.1181 21.5461L5.11658 27.2734L7.01278 28.9919L55.7501 22.3174L58.7104 22.9769L59.4265 27.0256L61.3747 22.6452L65.6551 20.7547L61.7787 19.8914Z" fill="#FDBB2F"/>
<path d="M60.6266 18.8203L61.1146 20.5589L62.7748 21.1184L60.8866 22.1216L59.8625 24.048L59.3744 22.3094L57.7183 21.7499L59.6025 20.7467L60.6266 18.8203Z" fill="#00483A"/>
</g>
</g>
<defs>
<clipPath id="clip0_1490_1403">
<rect width="74" height="34" fill="white"/>
</clipPath>
<clipPath id="clip1_1490_1403">
<rect width="74" height="34" fill="white"/>
</clipPath>
</defs>
</svg>
